<svg version="1.2" xmlns="http://www.w3.org/2000/svg" viewBox="0 0 135 36" width="135" height="36"><style>.a{fill:#6964ff}.b{fill:#fff}</style><path fill-rule="evenodd" class="a" d="m0.4 4.4h27.2l-13.6 27.2zm23.5 2.3h-19.8l1.1 2.2h15.1l-6.3 12.6-4-8h5.5l1.1-2.3h-10.3l7.7 15.3z"/><path class="b" d="m45.8 25h-4l-0.7-2.5h-4.4l-0.7 2.5h-4l4.4-13.6h4.9zm-8.3-5.6h2.9l-0.6-2.2q-0.2-0.7-0.5-1.9-0.3-1.2-0.4-1.7-0.1 0.5-0.3 1.6-0.3 1-1.1 4.2zm19.8 5.6h-3.6v-5.8q0-1-0.3-1.5-0.3-0.6-1-0.6-0.9 0-1.3 0.8-0.4 0.7-0.4 2.5v4.6h-3.6v-10.5h2.7l0.5 1.3h0.2q0.4-0.8 1.3-1.1 0.8-0.4 1.8-0.4 1.8 0 2.8 1 0.9 1 0.9 2.8zm7.3 0.2q-2.6 0-3.9-1.4-1.4-1.4-1.4-4 0-2.6 1.5-4 1.4-1.5 4.1-1.5 1.8 0 3.4 0.8l-1.1 2.7q-0.6-0.3-1.2-0.4-0.5-0.2-1.1-0.2-0.9 0-1.4 0.7-0.5 0.7-0.5 1.9 0 2.5 1.9 2.5 1.6 0 3.1-0.9v2.9q-1.5 0.9-3.4 0.9zm15.5-5.4q0 2.5-1.4 4-1.4 1.4-3.9 1.4-2.4 0-3.8-1.4-1.4-1.5-1.4-4 0-2.6 1.4-4 1.4-1.5 3.9-1.5 1.5 0 2.7 0.7 1.2 0.7 1.8 1.9 0.7 1.2 0.7 2.9zm-6.8 0q0 1.3 0.3 2 0.4 0.7 1.2 0.7 0.9 0 1.2-0.7 0.4-0.7 0.4-2 0-1.4-0.4-2.1-0.3-0.7-1.2-0.7-0.8 0-1.2 0.7-0.3 0.7-0.3 2.1zm16.6 2.5v2.7h-8.7v-2l4.3-5.7h-4.1v-2.8h8.3v2.3l-4.2 5.5zm11.8-2.5q0 2.5-1.4 4-1.4 1.4-3.9 1.4-2.4 0-3.8-1.4-1.4-1.5-1.4-4 0-2.6 1.3-4 1.4-1.5 3.9-1.5 1.6 0 2.8 0.7 1.2 0.7 1.8 1.9 0.7 1.2 0.7 2.9zm-6.9 0q0 1.3 0.4 2 0.4 0.7 1.2 0.7 0.9 0 1.2-0.7 0.4-0.7 0.4-2 0-1.4-0.4-2.1-0.3-0.7-1.2-0.7-0.8 0-1.2 0.7-0.4 0.7-0.4 2.1zm13.7 5.4q-2.6 0-3.9-1.4-1.3-1.4-1.3-4 0-2.6 1.4-4 1.4-1.5 4.1-1.5 1.8 0 3.4 0.8l-1 2.7q-0.7-0.3-1.2-0.4-0.6-0.2-1.2-0.2-0.9 0-1.4 0.7-0.4 0.7-0.4 1.9 0 2.5 1.8 2.5 1.6 0 3.1-0.9v2.9q-1.4 0.9-3.4 0.9zm8.9-6.1h0.1q0.6-1 1.1-1.6l2.4-3h4l-3.6 4.5 3.8 6h-4.1l-2.3-3.7-1.2 0.9v2.8h-3.6v-14.4h3.6v5.7q0 1.4-0.2 2.8zm14.2 3.3q0.8 0 1.8-0.4v2.6q-0.7 0.4-1.4 0.5-0.7 0.1-1.6 0.1-1.8 0-2.6-0.9-0.8-0.9-0.8-2.7v-4.3h-1.3v-1.5l1.6-1.2 1-2.2h2.4v2.1h2.5v2.8h-2.5v4q0 1.1 0.9 1.1z"/></svg>