<svg version="1.2" xmlns="http://www.w3.org/2000/svg" viewBox="0 0 135 36" width="135" height="36"><style>.a{fill:#6964ff}.b{fill:#fff}</style><path fill-rule="evenodd" class="a" d="m0.4 4.4h27.2l-13.6 27.2zm23.5 2.3h-19.8l1.1 2.2h15.1l-6.3 12.6-4-8h5.5l1.1-2.3h-10.3l7.7 15.3z"/><path class="b" d="m40.5 25h-4.2l-0.7-2.7h-4.6l-0.8 2.7h-4.2l4.7-14.3h5.1zm-8.8-5.9h3.1l-0.6-2.3q-0.2-0.8-0.6-2-0.3-1.3-0.4-1.8 0 0.5-0.3 1.6-0.3 1.2-1.2 4.5zm20.9 5.9h-3.8v-6.1q0-1.1-0.3-1.6-0.3-0.6-1-0.6-1 0-1.4 0.8-0.5 0.7-0.5 2.6v4.9h-3.8v-11.1h2.9l0.5 1.4h0.2q0.5-0.8 1.4-1.2 0.8-0.4 1.9-0.4 1.9 0 2.9 1.1 1 1 1 3zm7.7 0.2q-2.8 0-4.2-1.5-1.4-1.5-1.4-4.2 0-2.8 1.6-4.3 1.5-1.5 4.3-1.5 1.9 0 3.6 0.8l-1.1 2.9q-0.7-0.3-1.3-0.5-0.6-0.2-1.2-0.2-1 0-1.5 0.7-0.5 0.8-0.5 2.1 0 2.6 2 2.6 1.7 0 3.2-1v3.1q-1.5 1-3.5 1zm16.3-5.8q0 2.7-1.5 4.2-1.5 1.6-4.1 1.6-2.5 0-4-1.6-1.5-1.5-1.5-4.2 0-2.7 1.5-4.2 1.4-1.5 4.1-1.5 1.6 0 2.9 0.7 1.2 0.7 1.9 2 0.7 1.3 0.7 3zm-7.2 0q0 1.4 0.4 2.2 0.4 0.7 1.3 0.7 0.9 0 1.2-0.7 0.4-0.8 0.4-2.2 0-1.4-0.4-2.1-0.4-0.8-1.3-0.8-0.8 0-1.2 0.8-0.4 0.7-0.4 2.1zm17.5 2.6v3h-9.2v-2.2l4.6-6h-4.3v-2.9h8.7v2.4l-4.4 5.7zm12.4-2.6q0 2.7-1.5 4.2-1.5 1.6-4.1 1.6-2.5 0-4-1.6-1.5-1.5-1.5-4.2 0-2.7 1.5-4.2 1.4-1.5 4.1-1.5 1.6 0 2.8 0.7 1.3 0.7 2 2 0.7 1.3 0.7 3zm-7.2 0q0 1.4 0.4 2.2 0.3 0.7 1.2 0.7 0.9 0 1.3-0.7 0.4-0.8 0.4-2.2 0-1.4-0.4-2.1-0.4-0.8-1.3-0.8-0.9 0-1.2 0.8-0.4 0.7-0.4 2.1zm14.4 5.8q-2.7 0-4.1-1.5-1.4-1.5-1.4-4.2 0-2.8 1.5-4.3 1.5-1.5 4.3-1.5 1.9 0 3.6 0.8l-1.1 2.9q-0.7-0.3-1.3-0.5-0.6-0.2-1.2-0.2-1 0-1.5 0.7-0.5 0.8-0.5 2.1 0 2.6 2 2.6 1.7 0 3.2-1v3.1q-1.5 1-3.5 1zm9.3-6.5h0.1q0.7-1.1 1.2-1.7l2.5-3.1h4.2l-3.8 4.7 4.1 6.4h-4.4l-2.4-4-1.2 0.9v3.1h-3.9v-15.2h3.9v5.9q0 1.6-0.3 3zm15 3.4q0.8 0 1.9-0.3v2.7q-0.8 0.4-1.5 0.5-0.7 0.2-1.6 0.2-2 0-2.8-1-0.9-0.9-0.9-2.9v-4.5h-1.3v-1.6l1.7-1.2 1-2.3h2.5v2.2h2.7v2.9h-2.7v4.3q0 1 1 1z"/></svg>